# xmcd
#
# Track frame offsets:
# 150
# 10143
# 23277
# 41655
# 53340
# 65859
# 93510
# 104286
# 107934
# 129788
# 143571
# 154334
# 168510
# 172398
# 185373
# 204378
# 218787
# 225534
# 232359
#
# Disc length: 3385 seconds
#
#
# Revision: 0
# Processed by: cddbd v1.5.1PL2 Copyright (c) Steve Scherf et al.
# Submitted via: FreeRIP 2.945 
#
DISCID=040d3713
DTITLE=CCC - Jan
DYEAR=2002
DGENRE=Bluegrass
TTITLE0=Rye Straw
TTITLE1=Dying On The Vine
TTITLE2=Wayfarin' Stranger
TTITLE3=Little Maggie
TTITLE4=900 Miles
TTITLE5=Worried Man Blues
TTITLE6=Coo Coo
TTITLE7=Jan
TTITLE8=Once I Lived The Life
TTITLE9=Who's Gonna Shoe
TTITLE10=Run For Your Life
TTITLE11=Rye Whiskey
TTITLE12=Erg Schots
TTITLE13=Diggy Liggy Loo
TTITLE14=Lulu
TTITLE15=Mississippi Sawyer
TTITLE16=Black Girl
TTITLE17=Blue Ridge Mountains
TTITLE18=Strange Loop
EXTD=
EXTT0=
EXTT1=
EXTT2=
EXTT3=
EXTT4=
EXTT5=
EXTT6=
EXTT7=
EXTT8=
EXTT9=
EXTT10=
EXTT11=
EXTT12=
EXTT13=
EXTT14=
EXTT15=
EXTT16=
EXTT17=
EXTT18=
PLAYORDER=
